<svg width="24" height="24" viewBox="0 0 24 24" fill="none" xmlns="http://www.w3.org/2000/svg">
  <path d="M6.29292 5.2071L9.79292 8.7071C9.91541 8.82918 10.0674 8.91744 10.2342 8.96328C10.4009 9.00913 10.5767 9.01099 10.7444 8.9687C10.9121 8.9264 11.0659 8.84138 11.191 8.72193C11.316 8.60248 11.408 8.45267 11.4579 8.2871L12.9579 3.2871C13.0098 3.11418 13.0138 2.93045 12.9696 2.75541C12.9255 2.58037 12.8348 2.42054 12.7071 2.29289C12.5795 2.16524 12.4197 2.07453 12.2446 2.03037C12.0696 1.98622 11.8858 1.99027 11.7129 2.0421L6.71292 3.5421C6.54773 3.59251 6.39835 3.68473 6.27926 3.80982C6.16017 3.93491 6.07539 4.08863 6.03315 4.2561C5.99091 4.42357 5.99262 4.59911 6.03813 4.76572C6.08364 4.93233 6.17141 5.08436 6.29292 5.2071Z" fill="white" fill-opacity="0.6"></path>
  <path d="M4.96009 8.15717C3.25209 9.65817 3.00809 12.3252 4.41209 14.1252C5.82609 15.9372 8.40209 16.2322 10.1681 14.7832L15.0481 10.7792C15.2669 10.5994 15.5197 10.4655 15.7914 10.3854C16.063 10.3053 16.3481 10.2806 16.6294 10.3129C16.9108 10.3452 17.1828 10.4337 17.4293 10.5733C17.6758 10.7128 17.8916 10.9005 18.0641 11.1252C18.8131 12.0852 18.6811 13.5252 17.7711 14.3252L16.7281 15.2412C16.3191 15.6012 16.2721 16.2312 16.6221 16.6512C16.9721 17.0712 17.5881 17.1192 17.9971 16.7592L19.0401 15.8432C20.7481 14.3412 20.9931 11.6772 19.5871 9.87517C18.1751 8.06517 15.5951 7.76917 13.8311 9.21717L8.95109 13.2212C8.73236 13.4012 8.4796 13.5354 8.2079 13.6156C7.9362 13.6959 7.65112 13.7206 7.36965 13.6883C7.08819 13.656 6.81611 13.5674 6.56965 13.4277C6.32318 13.288 6.10737 13.1001 5.93509 12.8752C5.18809 11.9172 5.31909 10.4752 6.22809 9.67517L6.77009 9.26017C7.17909 8.90017 7.23009 8.27017 6.88009 7.85017C6.79787 7.75061 6.69649 7.66858 6.58196 7.60895C6.46743 7.54932 6.34209 7.51331 6.21338 7.50305C6.08466 7.49279 5.9552 7.50849 5.83267 7.54922C5.71014 7.58996 5.59705 7.65489 5.50009 7.74017L4.96009 8.15717Z" fill="white" fill-opacity="0.6"></path>
  <path d="M10 19C10 18.2044 10.3161 17.4413 10.8787 16.8787C11.4413 16.3161 12.2044 16 13 16C13.7956 16 14.5587 16.3161 15.1213 16.8787C15.6839 17.4413 16 18.2044 16 19C16 19.7956 15.6839 20.5587 15.1213 21.1213C14.5587 21.6839 13.7956 22 13 22C12.2044 22 11.4413 21.6839 10.8787 21.1213C10.3161 20.5587 10 19.7956 10 19Z" fill="white" fill-opacity="0.6"></path>
  </svg>
  