<svg data-v-82c499f6="" width="91" height="21" viewBox="0 0 91 21" fill="none" xmlns="http://www.w3.org/2000/svg"><path data-v-82c499f6="" d="M47.8634 16.1741C46.4974 16.3996 45.1145 16.5041 43.7305 16.4867C41.1347 16.4867 38.3511 14.7773 38.3511 10.0045V7.21105C38.3511 2.15027 41.2692 0.710917 43.9145 0.710917C45.2366 0.699117 46.5573 0.7966 47.8634 1.00234C48.0474 1.02368 48.2175 1.10542 48.2175 1.3151V2.35638C48.2175 2.50209 48.136 2.56609 47.9482 2.56609H47.8668C46.6413 2.463 45.6854 2.42035 43.918 2.42035C41.988 2.42035 40.2421 3.46166 40.2421 7.21105V10.0045C40.2421 13.4448 41.8005 14.7988 43.7339 14.7988C44.9984 14.7988 45.8588 14.717 46.3474 14.6742V8.71438C46.3431 8.66178 46.3494 8.60881 46.3664 8.55878C46.383 8.50876 46.4099 8.46267 46.4449 8.42342C46.4802 8.38413 46.5229 8.35248 46.5708 8.33042C46.6187 8.30833 46.6703 8.29628 46.7228 8.29502H47.8456C47.9522 8.30051 48.0529 8.34722 48.126 8.42539C48.1994 8.50353 48.2395 8.6071 48.2387 8.71438V15.7156C48.2418 15.8247 48.2054 15.9313 48.1366 16.0156C48.0675 16.0999 47.9703 16.1561 47.8634 16.1741Z" fill="#B0ACAB"></path> <path data-v-82c499f6="" d="M55.9801 6.33666C55.0132 6.29817 54.0452 6.36851 53.0939 6.54633V15.9252C53.099 16.0269 53.0652 16.1266 52.9992 16.2037C52.9333 16.2811 52.8407 16.3303 52.7397 16.3409H51.6596C51.555 16.3354 51.4569 16.2886 51.3864 16.2109C51.3161 16.1329 51.2794 16.0303 51.2843 15.9252V5.79644C51.2903 5.69179 51.3279 5.59142 51.3915 5.50839C51.4555 5.42537 51.5426 5.36351 51.6419 5.33089C52.8246 4.80847 54.2591 4.74805 55.9801 4.74805C56.2527 4.74805 56.4193 4.76936 56.4193 5.06078V6.01681C56.4193 6.2336 56.3769 6.33666 55.9801 6.33666Z" fill="#B0ACAB"></path> <path data-v-82c499f6="" d="M62.8716 16.4866C59.8191 16.4866 58.2679 14.4647 58.2679 11.4011V9.81601C58.2679 6.75254 59.826 4.73389 62.8716 4.73389C65.9172 4.73389 67.4756 6.75254 67.4756 9.81601V11.4011C67.4756 14.4647 65.9066 16.4866 62.8716 16.4866ZM65.6764 9.81601C65.6764 7.68365 64.8231 6.33672 62.8716 6.33672C60.9204 6.33672 60.088 7.67299 60.088 9.81601V11.4011C60.088 13.5333 60.9204 14.8838 62.8716 14.8838C64.8231 14.8838 65.6764 13.5476 65.6764 11.4011V9.81601Z" fill="#B0ACAB"></path> <path data-v-82c499f6="" d="M74.4024 16.4864H74.2043C72.7875 16.4864 69.9263 15.6939 69.9263 11.5892V5.29521C69.9217 5.24218 69.9283 5.18881 69.9455 5.1385C69.9627 5.08816 69.9902 5.04199 70.0263 5.00288C70.0622 4.96379 70.1058 4.93262 70.1545 4.91137C70.2033 4.89011 70.2557 4.87923 70.3085 4.8794H71.3889C71.4411 4.8802 71.493 4.8918 71.5406 4.91348C71.5885 4.93517 71.6312 4.96648 71.6664 5.00548C71.7017 5.04448 71.7284 5.09033 71.7453 5.14016C71.7622 5.19001 71.7685 5.24278 71.7642 5.29521V11.5892C71.7642 14.0771 72.8266 14.8836 74.2149 14.8836H74.4024C75.7908 14.8836 76.8531 14.0911 76.8531 11.5892V5.29521C76.8488 5.24307 76.8551 5.19059 76.8717 5.14099C76.8884 5.09139 76.9147 5.04571 76.9497 5.00676C76.9844 4.96782 77.0268 4.93642 77.0742 4.91454C77.1215 4.89262 77.1728 4.88068 77.225 4.8794H78.3051C78.3575 4.8802 78.4092 4.8918 78.457 4.91348C78.5046 4.93517 78.5476 4.96648 78.5829 5.00548C78.6179 5.04448 78.6448 5.09033 78.6618 5.14016C78.6784 5.19001 78.685 5.24278 78.6804 5.29521V11.5892C78.6804 15.6939 75.812 16.4864 74.4024 16.4864Z" fill="#B0ACAB"></path> <path data-v-82c499f6="" d="M85.7597 16.4868C84.9451 16.4759 84.1328 16.3999 83.3303 16.2593V20.0301C83.3303 20.0821 83.3202 20.1332 83.3004 20.1812C83.2807 20.2289 83.2517 20.2724 83.2153 20.3092C83.1786 20.3458 83.1353 20.3749 83.0877 20.3946C83.0398 20.4143 82.9888 20.4246 82.9372 20.4246H81.8748C81.8241 20.4241 81.7739 20.4135 81.7275 20.3935C81.681 20.3732 81.6392 20.3438 81.6042 20.3069C81.5689 20.2703 81.5417 20.2266 81.5239 20.1792C81.5058 20.1318 81.4975 20.0809 81.4995 20.0301V5.68647C81.4995 5.41639 81.5632 5.29199 81.9351 5.21025C83.1866 4.90572 84.4686 4.74478 85.7563 4.73047C88.8512 4.73047 90.2857 6.74909 90.2857 9.87656V11.3728C90.2892 14.6531 88.791 16.4868 85.7597 16.4868ZM88.4581 9.88011C88.4581 7.69089 87.8173 6.27642 85.7597 6.27642C84.9457 6.28116 84.1334 6.35007 83.3303 6.48256V14.7348C84.1337 14.8671 84.9457 14.9374 85.7597 14.9445C87.7961 14.9445 88.4581 13.6117 88.4581 11.3905V9.88011Z" fill="#B0ACAB"></path> <path data-v-82c499f6="" d="M11.7163 16.3161C10.7813 16.4619 8.17466 16.6467 7.27175 16.6467C3.263 16.6467 0.543091 15.6373 0.543091 10.5838V1.37196C0.543951 1.31859 0.555423 1.26596 0.576928 1.21711C0.598433 1.16828 0.629109 1.1242 0.667817 1.08748C0.706239 1.05074 0.75183 1.02209 0.801434 1.0032C0.851324 0.984315 0.904371 0.975573 0.957416 0.977459H4.3431C4.39615 0.975087 4.44948 0.983487 4.49937 1.0022C4.54926 1.02091 4.59514 1.04951 4.63385 1.08634C4.67227 1.12317 4.70324 1.16745 4.72446 1.21651C4.74567 1.26559 4.75685 1.31845 4.75743 1.37196V10.5838C4.75743 12.4602 5.38078 13.0715 6.85743 13.0715C7.52407 13.0694 8.18986 13.0266 8.85134 12.9436V1.37196C8.85163 1.31845 8.86281 1.26559 8.88403 1.21651C8.90524 1.16745 8.93621 1.12317 8.97492 1.08634C9.01363 1.04951 9.05922 1.02091 9.10911 1.0022C9.159 0.983487 9.21233 0.975087 9.26566 0.977459H12.6298C12.7397 0.972602 12.8466 1.01129 12.9283 1.08508C13.0098 1.15891 13.0591 1.26196 13.0654 1.37196V14.7099C13.0654 15.8756 12.7113 16.1704 11.7163 16.3161Z" fill="white"></path> <path data-v-82c499f6="" d="M19.5853 16.4618H16.1784C16.0694 16.4592 15.9659 16.4138 15.8896 16.3353C15.8137 16.257 15.7709 16.1518 15.7709 16.0427V1.37193C15.7721 1.31918 15.7833 1.26716 15.8042 1.21879C15.8251 1.17042 15.8555 1.12665 15.8934 1.09002C15.9312 1.05339 15.9757 1.02459 16.0247 1.00528C16.0734 0.985966 16.1259 0.976509 16.1784 0.977451H19.5853C19.6383 0.975051 19.6917 0.983452 19.7415 1.00217C19.7914 1.02088 19.8373 1.04951 19.8757 1.08633C19.9144 1.12313 19.9454 1.16742 19.9666 1.2165C19.9878 1.26556 19.999 1.31844 19.9996 1.37193V16.0427C19.9999 16.0975 19.9896 16.1518 19.9689 16.2027C19.9483 16.2535 19.9179 16.2998 19.8795 16.339C19.8407 16.3778 19.7952 16.4087 19.7444 16.4298C19.6939 16.451 19.6398 16.4618 19.5853 16.4618Z" fill="white"></path> <path data-v-82c499f6="" d="M31.6294 16.2734C30.6846 16.5436 29.7043 16.6696 28.7219 16.6465C24.9007 16.6465 22.3262 14.564 22.3262 9.79103V7.65867C22.3262 2.8715 24.9007 0.78891 28.7219 0.78891C29.7043 0.76774 30.684 0.893507 31.6294 1.16207C31.9623 1.26869 32.0864 1.32909 32.0864 1.62054V4.28954C32.0864 4.55962 31.9623 4.68402 31.7323 4.68402H31.6684C30.7032 4.57085 29.7327 4.50917 28.7609 4.49922C27.6384 4.49922 26.636 4.99678 26.636 7.64444V9.7768C26.636 12.4031 27.6347 12.9256 28.7609 12.9256C29.7327 12.9146 30.7032 12.8518 31.6684 12.7372H31.7074C31.9554 12.7372 32.0615 12.8616 32.0615 13.1317V15.8148C32.0864 16.0851 31.9623 16.1702 31.6294 16.2734Z" fill="white"></path></svg>