<svg width="60" height="32" viewBox="0 0 60 32" fill="none" xmlns="http://www.w3.org/2000/svg">
  <path d="M19.8786 7.66382C11.724 5.71305 6.02524 10.3488 2.51993 5.13621C2.50943 5.11521 2.49894 5.10473 2.48845 5.08376C2.394 4.93693 2.51993 4.72717 2.68784 4.76911C9.90838 6.48917 11.0838 5.41938 14.1169 5.78645C16.919 6.12207 19.8786 7.66382 19.8786 7.66382Z" fill="white"></path>
  <path d="M21.3162 8.97456C14.1375 7.91528 9.04741 13.2747 5.20625 9.15287C5.19575 9.14239 5.18526 9.12141 5.16427 9.11093C5.05933 8.99556 5.13279 8.7858 5.2902 8.79628C11.8496 9.27873 13.3923 8.12505 16.0897 8.00968C18.6083 7.9048 21.3162 8.97456 21.3162 8.97456Z" fill="white"></path>
  <path d="M22.6492 10.6632C16.3836 9.81372 13.697 15.4353 8.61744 11.9952C8.60695 11.9847 8.59645 11.9743 8.57547 11.9533C8.47052 11.8589 8.50201 11.5862 8.64893 11.5862C14.2008 11.5967 15.6491 10.3066 17.9896 10.0235C21.1591 9.64589 22.6492 10.6632 22.6492 10.6632Z" fill="white"></path>
  <path d="M25.4723 12.5196C22.1979 12.8657 22.7122 15.4877 19.123 14.9003C18.6507 14.8269 18.7557 14.4913 18.9656 14.4284C21.9776 13.5683 21.9776 12.9915 23.0586 12.5615C24.0871 12.1734 25.4723 12.5196 25.4723 12.5196Z" fill="white"></path>
  <path d="M23.9923 11.7119C19.2696 11.8063 18.0628 15.1939 14.0851 14.0927C13.4764 13.9249 13.6863 13.4634 14.0117 13.4215C18.5666 12.6978 18.7868 12.0266 20.4765 11.628C22.0612 11.2504 23.9923 11.7119 23.9923 11.7119Z" fill="white"></path>
  <path d="M21.2949 7.65318C21.2634 7.70561 21.19 7.71609 21.1375 7.69512C20.1615 7.13925 19.2486 6.48899 18.1991 5.77581C17.2125 5.11506 15.0925 4.21309 10.6846 4.42285C8.58561 4.52773 5.39515 4.95775 2.09973 2.70282C1.3021 2.16792 0.493987 1.25546 0.0741874 0.405949C0.0322103 0.332522 0.0112221 0.238125 0.00072781 0.143728C-0.00976646 0.0493311 0.0951755 -0.0240665 0.189653 0.00738968C8.34424 3.27966 10.6741 2.00013 15.8062 3.18526C17.9156 3.67822 20.5288 6.74072 21.2846 7.50633C21.3265 7.53781 21.3265 7.60072 21.2949 7.65318Z" fill="white"></path>
  <path d="M28.3897 25.5879C28.2951 25.8813 28.316 26.2276 28.1274 26.4793C27.8963 26.815 27.3297 26.8464 27.0567 26.5421C26.8784 26.385 26.8784 26.1333 26.8153 25.9339C26.4061 24.1405 26.0073 22.3468 25.6085 20.5429C25.5666 20.4172 25.6085 20.3332 25.7343 20.2809C25.9339 20.2283 25.9548 20.4486 26.0176 20.5746C26.4689 21.8017 26.8887 23.0391 27.3506 24.2662C27.4974 24.6859 27.9909 24.5493 28.316 24.6545C28.6624 24.8745 28.4525 25.2836 28.3897 25.5879Z" fill="white"></path>
  <path d="M28.925 20.6372C28.9671 20.7527 28.904 20.8889 28.7782 20.9098C28.7048 20.9204 28.6417 20.9098 28.6208 20.8049C28.3162 20.1967 28.0539 19.557 27.7391 18.9487C27.3299 18.6024 26.8995 18.2459 26.6478 17.753C26.1965 16.9559 26.2383 15.9176 26.7421 15.1519C26.784 15.0995 26.8155 15.0366 26.8577 14.9841C26.9311 14.8793 27.0885 14.9002 27.1303 15.0261C27.1619 15.1205 27.1828 15.2149 27.225 15.2988C27.7915 17.0713 28.3375 18.8647 28.925 20.6372Z" fill="white"></path>
  <path d="M29.009 12.1946C28.9881 12.6665 28.8098 13.107 28.6942 13.558C28.6836 13.5895 28.6733 13.6105 28.6417 13.6209C28.5683 13.6524 28.4949 13.6 28.4949 13.5266C28.5052 12.9078 28.7257 12.2995 28.5683 11.6911C28.3375 10.8626 27.7706 10.1389 27.7288 9.25793C27.7076 8.79646 27.8231 8.34548 27.9177 7.89449C27.5817 7.1918 27.4243 6.3842 27.6026 5.61859C27.6342 5.52419 27.6448 5.52419 27.6972 5.59759C28.0227 6.06958 28.4528 6.54153 28.4528 7.16031C28.4109 8.04131 27.9281 8.92231 28.2535 9.80332C28.5159 10.5899 29.0824 11.3241 29.009 12.1946Z" fill="white"></path>
  <path d="M31.7792 9.15276C31.7582 10.3064 30.7507 11.2294 30.8662 12.4041C30.8662 12.855 30.9815 13.3165 30.929 13.7675C30.8556 14.166 30.4043 14.229 30.0792 14.3234C29.8902 14.4073 29.6803 14.187 29.7328 13.9982C29.7328 12.6348 29.7328 11.2609 29.7328 9.89742C29.7537 9.33107 29.8902 8.73323 30.2784 8.30324C30.5199 8.02005 30.7716 7.73689 31.034 7.4537C31.0864 7.39076 31.118 7.31736 31.1077 7.24393C31.0864 6.99223 31.034 6.77197 31.1495 6.4783C31.3279 6.11122 31.559 5.89097 31.8001 5.64975C31.8422 5.60781 31.905 5.62878 31.9157 5.68121C32.0837 6.42587 31.9157 7.23345 31.5693 7.90468C31.6533 8.30324 31.7792 8.72274 31.7792 9.15276Z" fill="white"></path>
  <path d="M45.0348 4.93668C43.6075 5.33521 42.9463 5.81765 42.3797 6.26863C42.3797 6.26863 43.6706 5.81765 45.528 5.6184C50.7966 5.04156 51.1009 7.00281 56.9991 4.72691C57.1984 4.69546 57.2509 4.85276 57.1984 4.93668C56.4114 6.30012 55.5403 7.81039 52.2449 7.94672C48.6556 8.09358 46.7876 6.65671 43.4185 7.08672C41.2672 7.3594 40.1547 8.03064 39.5354 8.43968C46.8819 7.03427 46.2732 10.2646 53.4727 8.54456C53.5567 8.52356 53.6513 8.50259 53.7353 8.51308C53.924 8.53405 53.9977 8.76481 53.8821 8.89067C53.8297 8.95358 53.7562 9.01652 53.7038 9.07943C52.7593 10.0968 51.7621 11.2085 48.4036 10.9568C44.4576 10.6631 44.2059 8.21943 36.6704 10.0863C43.9748 10.0548 43.8489 12.4461 49.3484 11.7329C49.5373 11.7119 49.6526 11.9427 49.5058 12.0685C49.4218 12.1419 49.3272 12.2049 49.2537 12.2678C48.4248 12.9181 47.2177 13.7151 44.9508 13.2537C40.2281 12.2678 40.8265 10.317 34.7499 11.3868C39.4829 11.5127 39.1577 13.3481 44.0169 13.7991C44.0169 13.7991 44.0169 13.7991 44.0273 13.7991C44.2896 13.8305 44.3633 14.1766 44.1428 14.3235C43.9748 14.4388 43.7858 14.5227 43.6075 14.5961C40.0604 15.9701 38.4125 11.5232 34.0571 12.5195C37.1742 12.7922 36.9221 13.841 39.7349 14.6066C40.0391 14.6905 40.0079 15.0996 39.6718 15.131C36.3346 15.4667 36.6285 13.2222 34.5818 13.1383C34.0362 13.1173 33.5324 13.411 33.2594 13.8935C32.4514 15.2988 32.7766 16.6308 32.7241 17.3545C32.9131 18.1096 33.1967 18.8439 33.207 19.6408C33.2176 20.1967 33.1651 20.7736 32.9865 21.3084C32.6507 22.4201 32.315 23.5321 31.9686 24.6543C31.8952 24.8849 31.9055 25.1366 31.9895 25.3569C32.1154 25.6926 32.2416 26.0177 32.294 26.3743C32.4199 26.972 32.3359 27.5908 32.126 28.1676C31.6853 29.2479 31.2443 30.3281 30.8036 31.419C30.7196 31.6181 30.6568 31.8281 30.5097 31.9958C30.2895 32.0378 30.3104 31.7547 30.3314 31.6181C30.7618 27.5802 31.1709 23.5423 31.5907 19.5045L31.9267 18.5396C31.2655 19.1059 30.9716 19.8925 30.5413 20.5953C30.4888 20.763 30.237 20.7944 30.1846 20.6059C30.2264 19.903 30.3208 19.2005 30.342 18.4977C30.4048 17.7845 30.3945 17.0608 30.6359 16.3791C30.9086 15.6869 31.4333 15.131 31.8427 14.5332C32.5142 13.6732 33.018 12.6978 33.3644 11.67C33.5743 11.0407 34.0153 10.4848 34.5818 10.1387C36.5445 8.90115 37.6883 7.83136 39.546 6.42597C41.2566 5.13593 42.579 4.12907 43.3348 3.82494C46.7876 2.40904 53.7247 3.92982 59.6649 0.0702289C59.8117 -0.0136828 60.0006 0.154112 59.8854 0.395333C59.3291 1.80075 58.6679 2.70272 57.0935 3.47884C52.5597 5.71279 47.3542 4.28641 45.0348 4.93668Z" fill="white"></path>
  <path d="M31.2654 7.3596C31.2654 7.3596 30.8769 6.67788 29.9324 6.59396C29.2187 6.53105 28.8936 6.77227 28.8936 6.77227C28.8936 6.77227 29.754 6.52057 30.4258 7.11838C31.0974 7.71619 30.7301 8.23011 30.7301 8.23011C30.7301 8.23011 31.4647 7.8001 31.2654 7.3596Z" fill="white"></path>
  <path d="M31.2234 7.26508C31.2234 7.26508 30.7302 6.7407 29.7227 6.69873C29.7227 6.69873 30.3208 6.84555 30.3945 7.17069C30.5203 7.7895 29.9747 8.61804 29.8697 9.0166C29.7857 9.37319 31.2234 7.26508 31.2234 7.26508Z" fill="white"></path>
  </svg>
  
  