<svg width="26" height="46" viewBox="0 0 26 46" fill="none" xmlns="http://www.w3.org/2000/svg">
<path d="M12.8913 20.1951L22.1404 21.0359L13.5412 38.2342L14.1979 27.0704C14.236 26.4237 13.7538 25.8636 13.1086 25.8049L3.85958 24.9641L12.4588 7.76573L11.8021 18.9295C11.764 19.5762 12.2462 20.1364 12.8913 20.1951ZM24.1086 18.8049L14.2662 17.9101L15.1979 2.07045C15.2745 0.767755 13.5103 0.296146 12.9267 1.46332L0.92668 25.4633C0.548736 26.2192 1.04971 27.1185 1.89135 27.1951L11.7338 28.0898L10.8021 43.9295C10.7254 45.2322 12.4897 45.7038 13.0733 44.5366L25.0733 20.5366C25.4513 19.7808 24.9503 18.8814 24.1086 18.8049Z" fill="#00A795" stroke="#00A795" stroke-width="0.4"></path>
</svg>
